<svg width="440" height="512" viewBox="0 0 440 512" fill="none" xmlns="http://www.w3.org/2000/svg">
<g clip-path="url(#clip0_45_19)">
<path d="M342.382 237.037C340.168 235.975 337.932 234.96 335.675 233.992C331.728 161.255 291.983 119.613 225.247 119.187C186.742 118.931 152.275 134.632 130.793 167.228L167.495 192.406C182.76 169.247 206.716 164.309 224.359 164.309C224.562 164.309 224.767 164.309 224.969 164.312C246.942 164.451 263.524 170.84 274.256 183.299C282.066 192.37 287.29 204.905 289.876 220.724C270.394 217.412 249.324 216.395 226.799 217.685C163.35 221.341 122.559 258.346 125.299 309.766C126.689 335.849 139.683 358.288 161.885 372.946C180.658 385.337 204.835 391.397 229.963 390.026C263.146 388.207 289.177 375.546 307.339 352.395C321.132 334.816 329.855 312.033 333.707 283.327C349.521 292.87 361.242 305.43 367.714 320.527C378.721 346.192 379.362 388.367 344.95 422.749C314.8 452.87 278.558 465.9 223.786 466.303C163.029 465.853 117.079 446.369 87.204 408.389C59.228 372.826 44.77 321.459 44.231 255.714C44.77 189.969 59.228 138.601 87.204 103.039C117.079 65.06 163.028 45.575 223.785 45.125C284.982 45.58 331.733 65.158 362.752 103.32C377.962 122.033 389.429 145.568 396.988 173.008L439.999 161.532C430.836 127.757 416.418 98.651 396.796 74.515C357.031 25.59 298.872 0.519 223.935 0H223.635C148.851 0.518 91.343 25.683 52.709 74.794C18.331 118.498 0.598 179.308 0.002 255.534L0 255.714L0.002 255.894C0.598 332.12 18.331 392.931 52.709 436.635C91.343 485.745 148.851 510.912 223.635 511.429H223.935C290.422 510.967 337.287 493.561 375.895 454.987C426.406 404.524 424.886 341.27 408.237 302.439C396.293 274.592 373.521 251.975 342.382 237.037ZM227.587 344.967C199.778 346.533 170.887 334.05 169.463 307.315C168.407 287.492 183.571 265.373 229.293 262.738C234.53 262.436 239.668 262.288 244.715 262.288C261.324 262.288 276.861 263.901 290.987 266.99C285.719 332.788 254.814 343.473 227.587 344.967Z" fill="white"/>
</g>
<defs>
<clipPath id="clip0_45_19">
<rect width="439.999" height="511.429" fill="white"/>
</clipPath>
</defs>
</svg>
